<?xml version="1.0" encoding="UTF-8"?>
<svg xmlns="http://www.w3.org/2000/svg" style="display:none">
    <symbol id="play" viewBox="0 0 1792 1792">
        <title id="play-title">Play</title>
        <path d="M1576 927l-1328 738q-23 13-39.5 3t-16.5-36v-1472q0-26 16.5-36t39.5 3l1328 738q23 13 23 31t-23 31z"/>
    </symbol>
    <symbol id="pause" viewBox="9 9 1792 1792">
        <title id="pause-title">Pause</title>
        <path d="M1664 192v1408q0 26-19 45t-45 19h-512q-26 0-45-19t-19-45v-1408q0-26 19-45t45-19h512q26 0 45 19t19 45zm-896 0v1408q0 26-19 45t-45 19h-512q-26 0-45-19t-19-45v-1408q0-26 19-45t45-19h512q26 0 45 19t19 45z"/>
    </symbol>
    <symbol id="spotify" viewBox="0 0 64 64">
        <title id="spotify-title">Spotify</title>
        <path d="M39,37.7c-4.2-2.6-9.4-3.2-15.5-1.8c-0.5,0.1-0.9,0.7-0.8,1.2c0.1,0.5,0.7,0.9,1.2,0.7c5.6-1.3,10.3-0.8,14.1,1.5 c0.5,0.3,1.1,0.1,1.4-0.3C39.6,38.6,39.5,38,39,37.7z M40.9,33c-4.9-3-12.2-3.9-18-2.1c-0.7,0.2-1,0.9-0.8,1.6 c0.2,0.7,0.9,1,1.6,0.8c5.1-1.5,11.6-0.8,15.9,1.9c0.6,0.4,1.4,0.2,1.7-0.4C41.7,34.1,41.5,33.4,40.9,33z M0,0v64h64V0H0z M32,48 c-8.8,0-16-7.2-16-16c0-8.8,7.2-16,16-16c8.8,0,16,7.2,16,16C48,40.8,40.8,48,32,48z M43,27.6c-5.9-3.5-15.3-3.9-21-2.1 c-0.8,0.2-1.2,1.1-1,1.9c0.2,0.8,1.1,1.2,1.9,1c4.9-1.5,13.4-1.2,18.6,1.9c0.7,0.4,1.6,0.2,2.1-0.5C43.9,29,43.7,28,43,27.6z"/>
    </symbol>
    <symbol id="soundcloud" viewBox="0 0 64 64">
        <title id="soundcloud-title">SoundCloud</title>
        <path d="M0,0v64h64V0H0z M18.5,36.3c0,0.7-0.6,1.2-1.2,1.2c-0.7,0-1.2-0.6-1.2-1.2v-4.9c0-0.6,0.6-1.1,1.2-1.1 c0.7,0,1.2,0.5,1.2,1.1V36.3z M23.4,37.5c0,0.7-0.6,1.2-1.2,1.2S21,38.2,21,37.5V29c0-0.6,0.6-1.1,1.2-1.1s1.2,0.5,1.2,1.1V37.5z  M28.4,37.5c0,0.7-0.6,1.2-1.2,1.2c-0.7,0-1.2-0.6-1.2-1.2V26.2c0-0.6,0.6-1.1,1.2-1.1c0.7,0,1.2,0.5,1.2,1.1V37.5z M43.6,38.7 c0,0-12.1,0-12.2,0c-0.3,0-0.5-0.2-0.5-0.5V24.3c0-0.3,0.1-0.4,0.4-0.5c0.9-0.3,1.8-0.5,2.8-0.5c4,0,7.4,3.1,7.7,7.1 c0.5-0.2,1.1-0.3,1.7-0.3c2.4,0,4.4,2,4.4,4.4C48,36.8,46,38.7,43.6,38.7z"/>
    </symbol>
    <symbol id="bandcamp" viewBox="0 0 496 512">
        <title id="bandcamp-title">Bandcamp</title>
        <path d="M248 8C111 8 0 119 0 256s111 248 248 248 248-111 248-248S385 8 248 8zm48.2 326.1h-181L199.9 178h181l-84.7 156.1z"/>
    </symbol>
    <symbol id="facebook" viewBox="0 0 64 64">
        <title id="facebook-title">Facebook</title>
        <path d="M0,0v64h64V0H0z M39.6,22l-2.8,0c-2.2,0-2.6,1.1-2.6,2.6V28h5.3l-0.7,5.3h-4.6V47h-5.5V33.3H24V28h4.6V24 c0-4.6,2.8-7,6.9-7c2,0,3.6,0.1,4.1,0.2V22z"/>
    </symbol>
    <symbol id="apple-music" viewBox="0 0 50 50">
        <title id="apple-music">Apple Music</title>
        <path d="M25,2C12.318,2,2,12.317,2,25s10.318,23,23,23s23-10.317,23-23S37.682,2,25,2z M35,29.866C35,32.701,32.701,35,29.866,35 h-0.101c-1.785,0-3.452-1.214-3.725-2.977c-0.05-0.325-0.053-0.649-0.01-0.973c0.18-1.39,1.17-2.52,2.48-2.91l0.29-0.07l3.447-0.878 C32.69,27.079,33,26.68,33,26.223v-6.164c0-0.622-0.561-1.093-1.174-0.985l-9.676,1.884C21.485,21.075,21,21.653,21,22.329v10.536 C21,35.701,18.701,38,15.866,38h-0.101c-1.785,0-3.452-1.214-3.725-2.977c-0.05-0.325-0.053-0.649-0.01-0.973 c0.18-1.39,1.17-2.52,2.48-2.91l0.29-0.07l3.447-0.878C18.69,30.079,19,29.68,19,29.223V15.956c0-0.664,0.476-1.232,1.13-1.347 l13.696-2.594C34.439,11.907,35,12.378,35,13V29.866z"/>
    </symbol>
</svg>
